# xmcd CD database file
#
# Track frame offsets:
#	150
#	16202
#	34369
#	50509
#	64022
#	77863
#	91773
#	105909
#	120405
#	136037
#	151351
#	168860
#	185819
#
# Disc length: 2715 seconds
#
# Revision: 0
# Processed by: cddbd v1.5.2PL0 Copyright (c) Steve Scherf et al.
# Submitted via: CDex 1.70beta2
#
DISCID=9a0a990d
DTITLE=Various Artist - CDX 533
DYEAR=1900
DGENRE=Country
TTITLE0=Lee Brice - A Woman Like You
TTITLE1=Dierks Bentley - Home
TTITLE2=Kenny Chesney - Reality 
TTITLE3=Neal McCoy - A-OK
TTITLE4=Mark Cooke - Anyway The Wind Blows
TTITLE5=Shane Yellowbird - Bare Feet on the Blacktop
TTITLE6=Matt Bailie - Everyday You
TTITLE7=Lucas Hoge - Give a Damn
TTITLE8=Jimmy White - Hard Ride
TTITLE9=Jon Wolfe - I Don't Dance
TTITLE10=Jenna Despres - Let Me In
TTITLE11=Matt Marinchick - Part Time Lady 
TTITLE12=Marty McIntosh - She Makes Me Look Good 
EXTD=
EXTT0=
EXTT1=
EXTT2=
EXTT3=
EXTT4=
EXTT5=
EXTT6=
EXTT7=
EXTT8=
EXTT9=
EXTT10=
EXTT11=
EXTT12=
PLAYORDER=
